<svg width="182" height="166" viewBox="0 0 182 166" fill="none" xmlns="http://www.w3.org/2000/svg">
<path fill-rule="evenodd" clip-rule="evenodd" d="M176.9 122.041C191.119 90.1759 169.065 57.4037 143.808 33.328C118.774 9.46509 85.589 -9.54363 54.2862 5.16232C17.9958 22.2114 -6.17428 60.8605 1.38623 100.237C8.74085 138.541 46.2937 160.316 84.9999 165.124C122.119 169.736 161.659 156.2 176.9 122.041ZM150.87 111.018C160.826 88.5585 145.383 65.4597 127.698 48.4905C110.168 31.6713 86.9316 18.2734 65.0126 28.6385C39.6011 40.6552 22.6766 67.8962 27.9707 95.6498C33.1206 122.648 59.416 137.995 86.519 141.384C112.511 144.634 140.198 135.094 150.87 111.018Z" fill="#1498A4"/>
</svg>
